<?xml version="1.0" encoding="utf-8" standalone="no"?>
<!DOCTYPE svg PUBLIC "-//W3C//DTD SVG 1.1//EN"
  "http://www.w3.org/Graphics/SVG/1.1/DTD/svg11.dtd">
<!-- Created with matplotlib (http://matplotlib.org/) -->
<svg height="432pt" version="1.1" viewBox="0 0 576 432" width="576pt" xmlns="http://www.w3.org/2000/svg" xmlns:xlink="http://www.w3.org/1999/xlink">
 <defs>
  <style type="text/css">
*{stroke-linecap:butt;stroke-linejoin:round;}
  </style>
 </defs>
 <g id="figure_1">
  <g id="patch_1">
   <path d="
M0 432
L576 432
L576 0
L0 0
z
" style="fill:#ffffff;"/>
  </g>
  <g id="axes_1">
   <g id="patch_2">
    <path d="
M72 388.8
L518.4 388.8
L518.4 43.2
L72 43.2
z
" style="fill:#ffffff;"/>
   </g>
   <g id="line2d_1">
    <path clip-path="url(#p7ff5b81e1d)" d="
M72 351.771
L74.232 294.254
L76.464 244.142
L78.696 201.435
L80.928 177.49
L85.392 126.885
L87.624 111.579
L89.856 97.5086
L92.088 75.2914
L94.32 65.4171
L96.552 71.3417
L98.784 69.3669
L101.016 67.6389
L103.248 61.2206
L105.48 63.6891
L107.712 64.1829
L109.944 64.9234
L112.176 69.12
L114.408 70.1074
L116.64 69.12
L118.872 79.7349
L121.104 86.4
L123.336 87.8811
L125.568 89.1154
L127.8 89.1154
L130.032 94.0526
L132.264 98.2491
L134.496 109.111
L136.728 111.333
L138.96 113.307
L141.192 123.182
L143.424 129.847
L145.656 137.006
L147.888 142.683
L150.12 144.165
L152.352 145.399
L154.584 147.374
L156.816 158.729
L159.048 165.394
L161.28 171.566
L163.512 172.306
L165.744 178.231
L167.976 179.959
L172.44 190.327
L174.672 192.302
L176.904 191.314
L179.136 197.979
L181.368 200.695
L183.6 201.189
L188.064 198.226
L190.296 206.126
L192.528 206.619
L194.76 208.347
L196.992 209.582
L199.224 218.222
L201.456 219.95
L203.688 218.222
L205.92 218.469
L208.152 217.975
L210.384 223.406
L212.616 222.418
L214.848 223.653
L217.08 217.481
L219.312 222.912
L221.544 227.355
L223.776 224.64
L226.008 224.64
L228.24 222.665
L230.472 225.381
L232.704 227.109
L234.936 230.071
L237.168 226.615
L239.4 222.665
L241.632 221.678
L243.864 218.469
L246.096 218.222
L248.328 213.285
L250.56 209.829
L252.792 209.582
L255.024 210.075
L257.256 208.347
L259.488 211.557
L261.72 215.013
L263.952 216.741
L266.184 217.234
L268.416 213.285
L270.648 215.506
L272.88 211.557
L275.112 216.494
L277.344 217.728
L279.576 215.013
L281.808 215.013
L284.04 216
L286.272 217.728
L288.504 218.222
L290.736 226.121
L292.968 225.627
L295.2 226.615
L297.432 228.59
L299.664 223.406
L301.896 227.355
L304.128 228.59
L306.36 228.59
L308.592 233.527
L310.824 230.071
L313.056 233.527
L317.52 231.058
L319.752 227.602
L321.984 229.824
L324.216 229.577
L326.448 231.058
L328.68 229.577
L330.912 230.811
L333.144 229.824
L335.376 229.577
L337.608 228.096
L339.84 227.355
L342.072 222.912
L344.304 223.653
L346.536 222.171
L348.768 223.406
L351 220.197
L353.232 222.418
L355.464 229.083
L357.696 224.887
L359.928 224.146
L362.16 223.653
L364.392 221.925
L366.624 221.184
L368.856 221.678
L371.088 219.456
L373.32 223.159
L375.552 227.109
L377.784 224.64
L380.016 225.381
L382.248 227.109
L384.48 227.849
L386.712 226.862
L388.944 226.862
L391.176 226.368
L393.408 226.615
L395.64 227.849
L397.872 226.615
L400.104 225.874
L402.336 226.121
L404.568 226.121
L406.8 229.33
L409.032 227.602
L411.264 232.046
L413.496 230.565
L415.728 230.565
L417.96 233.033
L420.192 227.355
L422.424 223.653
L424.656 222.418
L426.888 221.431
L429.12 218.222
L431.352 218.962
L433.584 221.184
L435.816 218.469
L438.048 220.443
L440.28 216.987
L442.512 214.519
L444.744 211.803
L446.976 215.753
L449.208 214.025
L453.672 217.975
L455.904 217.481
L458.136 224.146
L460.368 224.146
L462.6 219.703
L464.832 218.715
L467.064 213.778
L471.528 215.259
L473.76 211.803
L475.992 207.113
L478.224 208.594
L480.456 212.544
L482.688 210.569
L487.152 210.569
L489.384 212.791
L491.616 210.075
L493.848 212.05
L496.08 208.101
L498.312 210.322
L500.544 213.038
L502.776 214.766
L505.008 214.025
L507.24 214.519
L509.472 221.925
L511.704 219.95
L513.936 220.197
L516.168 216.741
L516.168 216.741" style="fill:none;stroke:#ff0000;stroke-dasharray:3.000000,5.000000,1.000000,5.000000;stroke-dashoffset:0.0;"/>
   </g>
   <g id="line2d_2">
    <path clip-path="url(#p7ff5b81e1d)" d="
M72 364.114
L74.232 322.395
L76.464 285.12
L78.696 257.719
L80.928 228.837
L83.16 215.506
L85.392 206.866
L87.624 198.72
L89.856 189.339
L92.088 180.453
L94.32 176.75
L96.552 176.503
L98.784 177.984
L101.016 176.997
L103.248 176.503
L105.48 176.503
L107.712 175.269
L109.944 175.022
L112.176 175.269
L116.64 166.135
L118.872 170.825
L121.104 168.85
L123.336 173.541
L125.568 181.193
L127.8 182.427
L130.032 187.118
L132.264 185.637
L134.496 193.042
L136.728 198.226
L138.96 202.176
L141.192 204.645
L143.424 207.854
L145.656 216.247
L147.888 220.937
L150.12 226.615
L152.352 228.59
L154.584 224.393
L156.816 230.318
L159.048 231.552
L161.28 233.774
L163.512 237.477
L165.744 245.623
L167.976 245.376
L170.208 250.807
L172.44 251.301
L176.904 257.719
L179.136 257.719
L181.368 261.915
L183.6 262.903
L185.832 262.656
L188.064 265.371
L190.296 267.84
L192.528 270.062
L194.76 269.074
L196.992 271.049
L199.224 274.505
L201.456 273.765
L203.688 276.48
L205.92 279.936
L208.152 277.961
L210.384 284.133
L212.616 283.145
L214.848 285.12
L217.08 281.417
L219.312 278.455
L221.544 277.961
L223.776 273.518
L226.008 274.999
L228.24 271.543
L230.472 272.53
L232.704 274.999
L234.936 275.739
L237.168 273.024
L239.4 274.258
L241.632 278.208
L243.864 277.467
L246.096 279.689
L248.328 281.664
L250.56 281.17
L252.792 281.17
L257.256 276.233
L259.488 278.702
L261.72 274.999
L263.952 280.183
L266.184 281.17
L268.416 282.898
L270.648 283.392
L272.88 284.379
L275.112 283.886
L277.344 284.133
L279.576 284.873
L281.808 284.873
L284.04 283.639
L286.272 285.367
L288.504 283.639
L290.736 282.405
L292.968 283.886
L295.2 283.145
L297.432 285.367
L299.664 282.898
L301.896 282.405
L304.128 281.17
L306.36 279.442
L308.592 283.392
L310.824 279.689
L313.056 279.936
L315.288 278.702
L317.52 279.195
L319.752 279.936
L321.984 281.911
L324.216 280.183
L326.448 279.936
L328.68 275.986
L330.912 274.999
L333.144 273.024
L335.376 270.802
L337.608 274.752
L339.84 277.467
L342.072 271.79
L344.304 275.739
L346.536 278.949
L348.768 274.258
L351 273.765
L353.232 276.727
L355.464 276.974
L357.696 281.911
L359.928 279.689
L362.16 278.949
L364.392 274.999
L366.624 277.961
L368.856 276.974
L371.088 278.702
L373.32 277.961
L375.552 280.183
L377.784 273.765
L380.016 272.53
L382.248 269.321
L384.48 272.283
L386.712 273.518
L388.944 270.802
L391.176 270.555
L393.408 273.271
L395.64 274.258
L397.872 271.79
L400.104 273.518
L404.568 274.999
L406.8 277.221
L409.032 271.79
L411.264 269.815
L413.496 271.79
L415.728 277.467
L422.424 278.208
L424.656 272.53
L426.888 275.493
L429.12 275.986
L431.352 279.195
L433.584 285.12
L435.816 287.835
L438.048 285.614
L440.28 284.873
L442.512 286.107
L444.744 283.886
L446.976 285.367
L449.208 283.392
L451.44 285.12
L453.672 286.107
L455.904 290.304
L458.136 289.07
L460.368 291.785
L462.6 292.773
L464.832 288.576
L467.064 282.898
L469.296 283.392
L473.76 276.974
L475.992 278.208
L478.224 277.221
L480.456 278.208
L482.688 277.221
L484.92 274.752
L487.152 275.246
L489.384 277.714
L491.616 273.518
L493.848 269.568
L496.08 269.815
L498.312 275.246
L500.544 275.493
L502.776 276.727
L505.008 275.986
L507.24 274.999
L509.472 280.183
L511.704 280.923
L513.936 281.17
L516.168 278.949
L516.168 278.949" style="fill:none;stroke:#008000;stroke-linecap:square;"/>
    <defs>
     <path d="
M1.83697e-16 -3
L-0.673542 -0.927051
L-2.85317 -0.927051
L-1.08981 0.354102
L-1.76336 2.42705
L-2.10498e-16 1.1459
L1.76336 2.42705
L1.08981 0.354102
L2.85317 -0.927051
L0.673542 -0.927051
z
" id="m78c097fb03" style="stroke:#000000;stroke-linejoin:bevel;stroke-width:0.5;"/>
    </defs>
    <g clip-path="url(#p7ff5b81e1d)">
     <use style="fill:#008000;stroke:#000000;stroke-linejoin:bevel;stroke-width:0.5;" x="72.0" xlink:href="#m78c097fb03" y="364.114285714"/>
     <use style="fill:#008000;stroke:#000000;stroke-linejoin:bevel;stroke-width:0.5;" x="74.232" xlink:href="#m78c097fb03" y="322.395428571"/>
     <use style="fill:#008000;stroke:#000000;stroke-linejoin:bevel;stroke-width:0.5;" x="76.464" xlink:href="#m78c097fb03" y="285.12"/>
     <use style="fill:#008000;stroke:#000000;stroke-linejoin:bevel;stroke-width:0.5;" x="78.696" xlink:href="#m78c097fb03" y="257.718857143"/>
     <use style="fill:#008000;stroke:#000000;stroke-linejoin:bevel;stroke-width:0.5;" x="80.928" xlink:href="#m78c097fb03" y="228.836571429"/>
     <use style="fill:#008000;stroke:#000000;stroke-linejoin:bevel;stroke-width:0.5;" x="83.16" xlink:href="#m78c097fb03" y="215.506285714"/>
     <use style="fill:#008000;stroke:#000000;stroke-linejoin:bevel;stroke-width:0.5;" x="85.392" xlink:href="#m78c097fb03" y="206.866285714"/>
     <use style="fill:#008000;stroke:#000000;stroke-linejoin:bevel;stroke-width:0.5;" x="87.624" xlink:href="#m78c097fb03" y="198.72"/>
     <use style="fill:#008000;stroke:#000000;stroke-linejoin:bevel;stroke-width:0.5;" x="89.856" xlink:href="#m78c097fb03" y="189.339428571"/>
     <use style="fill:#008000;stroke:#000000;stroke-linejoin:bevel;stroke-width:0.5;" x="92.088" xlink:href="#m78c097fb03" y="180.452571429"/>
     <use style="fill:#008000;stroke:#000000;stroke-linejoin:bevel;stroke-width:0.5;" x="94.32" xlink:href="#m78c097fb03" y="176.749714286"/>
     <use style="fill:#008000;stroke:#000000;stroke-linejoin:bevel;stroke-width:0.5;" x="96.552" xlink:href="#m78c097fb03" y="176.502857143"/>
     <use style="fill:#008000;stroke:#000000;stroke-linejoin:bevel;stroke-width:0.5;" x="98.784" xlink:href="#m78c097fb03" y="177.984"/>
     <use style="fill:#008000;stroke:#000000;stroke-linejoin:bevel;stroke-width:0.5;" x="101.016" xlink:href="#m78c097fb03" y="176.996571429"/>
     <use style="fill:#008000;stroke:#000000;stroke-linejoin:bevel;stroke-width:0.5;" x="103.248" xlink:href="#m78c097fb03" y="176.502857143"/>
     <use style="fill:#008000;stroke:#000000;stroke-linejoin:bevel;stroke-width:0.5;" x="105.48" xlink:href="#m78c097fb03" y="176.502857143"/>
     <use style="fill:#008000;stroke:#000000;stroke-linejoin:bevel;stroke-width:0.5;" x="107.712" xlink:href="#m78c097fb03" y="175.268571429"/>
     <use style="fill:#008000;stroke:#000000;stroke-linejoin:bevel;stroke-width:0.5;" x="109.944" xlink:href="#m78c097fb03" y="175.021714286"/>
     <use style="fill:#008000;stroke:#000000;stroke-linejoin:bevel;stroke-width:0.5;" x="112.176" xlink:href="#m78c097fb03" y="175.268571429"/>
     <use style="fill:#008000;stroke:#000000;stroke-linejoin:bevel;stroke-width:0.5;" x="114.408" xlink:href="#m78c097fb03" y="170.578285714"/>
     <use style="fill:#008000;stroke:#000000;stroke-linejoin:bevel;stroke-width:0.5;" x="116.64" xlink:href="#m78c097fb03" y="166.134857143"/>
     <use style="fill:#008000;stroke:#000000;stroke-linejoin:bevel;stroke-width:0.5;" x="118.872" xlink:href="#m78c097fb03" y="170.825142857"/>
     <use style="fill:#008000;stroke:#000000;stroke-linejoin:bevel;stroke-width:0.5;" x="121.104" xlink:href="#m78c097fb03" y="168.850285714"/>
     <use style="fill:#008000;stroke:#000000;stroke-linejoin:bevel;stroke-width:0.5;" x="123.336" xlink:href="#m78c097fb03" y="173.540571429"/>
     <use style="fill:#008000;stroke:#000000;stroke-linejoin:bevel;stroke-width:0.5;" x="125.568" xlink:href="#m78c097fb03" y="181.193142857"/>
     <use style="fill:#008000;stroke:#000000;stroke-linejoin:bevel;stroke-width:0.5;" x="127.8" xlink:href="#m78c097fb03" y="182.427428571"/>
     <use style="fill:#008000;stroke:#000000;stroke-linejoin:bevel;stroke-width:0.5;" x="130.032" xlink:href="#m78c097fb03" y="187.117714286"/>
     <use style="fill:#008000;stroke:#000000;stroke-linejoin:bevel;stroke-width:0.5;" x="132.264" xlink:href="#m78c097fb03" y="185.636571429"/>
     <use style="fill:#008000;stroke:#000000;stroke-linejoin:bevel;stroke-width:0.5;" x="134.496" xlink:href="#m78c097fb03" y="193.042285714"/>
     <use style="fill:#008000;stroke:#000000;stroke-linejoin:bevel;stroke-width:0.5;" x="136.728" xlink:href="#m78c097fb03" y="198.226285714"/>
     <use style="fill:#008000;stroke:#000000;stroke-linejoin:bevel;stroke-width:0.5;" x="138.96" xlink:href="#m78c097fb03" y="202.176"/>
     <use style="fill:#008000;stroke:#000000;stroke-linejoin:bevel;stroke-width:0.5;" x="141.192" xlink:href="#m78c097fb03" y="204.644571429"/>
     <use style="fill:#008000;stroke:#000000;stroke-linejoin:bevel;stroke-width:0.5;" x="143.424" xlink:href="#m78c097fb03" y="207.853714286"/>
     <use style="fill:#008000;stroke:#000000;stroke-linejoin:bevel;stroke-width:0.5;" x="145.656" xlink:href="#m78c097fb03" y="216.246857143"/>
     <use style="fill:#008000;stroke:#000000;stroke-linejoin:bevel;stroke-width:0.5;" x="147.888" xlink:href="#m78c097fb03" y="220.937142857"/>
     <use style="fill:#008000;stroke:#000000;stroke-linejoin:bevel;stroke-width:0.5;" x="150.12" xlink:href="#m78c097fb03" y="226.614857143"/>
     <use style="fill:#008000;stroke:#000000;stroke-linejoin:bevel;stroke-width:0.5;" x="152.352" xlink:href="#m78c097fb03" y="228.589714286"/>
     <use style="fill:#008000;stroke:#000000;stroke-linejoin:bevel;stroke-width:0.5;" x="154.584" xlink:href="#m78c097fb03" y="224.393142857"/>
     <use style="fill:#008000;stroke:#000000;stroke-linejoin:bevel;stroke-width:0.5;" x="156.816" xlink:href="#m78c097fb03" y="230.317714286"/>
     <use style="fill:#008000;stroke:#000000;stroke-linejoin:bevel;stroke-width:0.5;" x="159.048" xlink:href="#m78c097fb03" y="231.552"/>
     <use style="fill:#008000;stroke:#000000;stroke-linejoin:bevel;stroke-width:0.5;" x="161.28" xlink:href="#m78c097fb03" y="233.773714286"/>
     <use style="fill:#008000;stroke:#000000;stroke-linejoin:bevel;stroke-width:0.5;" x="163.512" xlink:href="#m78c097fb03" y="237.476571429"/>
     <use style="fill:#008000;stroke:#000000;stroke-linejoin:bevel;stroke-width:0.5;" x="165.744" xlink:href="#m78c097fb03" y="245.622857143"/>
     <use style="fill:#008000;stroke:#000000;stroke-linejoin:bevel;stroke-width:0.5;" x="167.976" xlink:href="#m78c097fb03" y="245.376"/>
     <use style="fill:#008000;stroke:#000000;stroke-linejoin:bevel;stroke-width:0.5;" x="170.208" xlink:href="#m78c097fb03" y="250.806857143"/>
     <use style="fill:#008000;stroke:#000000;stroke-linejoin:bevel;stroke-width:0.5;" x="172.44" xlink:href="#m78c097fb03" y="251.300571429"/>
     <use style="fill:#008000;stroke:#000000;stroke-linejoin:bevel;stroke-width:0.5;" x="174.672" xlink:href="#m78c097fb03" y="254.509714286"/>
     <use style="fill:#008000;stroke:#000000;stroke-linejoin:bevel;stroke-width:0.5;" x="176.904" xlink:href="#m78c097fb03" y="257.718857143"/>
     <use style="fill:#008000;stroke:#000000;stroke-linejoin:bevel;stroke-width:0.5;" x="179.136" xlink:href="#m78c097fb03" y="257.718857143"/>
     <use style="fill:#008000;stroke:#000000;stroke-linejoin:bevel;stroke-width:0.5;" x="181.368" xlink:href="#m78c097fb03" y="261.915428571"/>
     <use style="fill:#008000;stroke:#000000;stroke-linejoin:bevel;stroke-width:0.5;" x="183.6" xlink:href="#m78c097fb03" y="262.902857143"/>
     <use style="fill:#008000;stroke:#000000;stroke-linejoin:bevel;stroke-width:0.5;" x="185.832" xlink:href="#m78c097fb03" y="262.656"/>
     <use style="fill:#008000;stroke:#000000;stroke-linejoin:bevel;stroke-width:0.5;" x="188.064" xlink:href="#m78c097fb03" y="265.371428571"/>
     <use style="fill:#008000;stroke:#000000;stroke-linejoin:bevel;stroke-width:0.5;" x="190.296" xlink:href="#m78c097fb03" y="267.84"/>
     <use style="fill:#008000;stroke:#000000;stroke-linejoin:bevel;stroke-width:0.5;" x="192.528" xlink:href="#m78c097fb03" y="270.061714286"/>
     <use style="fill:#008000;stroke:#000000;stroke-linejoin:bevel;stroke-width:0.5;" x="194.76" xlink:href="#m78c097fb03" y="269.074285714"/>
     <use style="fill:#008000;stroke:#000000;stroke-linejoin:bevel;stroke-width:0.5;" x="196.992" xlink:href="#m78c097fb03" y="271.049142857"/>
     <use style="fill:#008000;stroke:#000000;stroke-linejoin:bevel;stroke-width:0.5;" x="199.224" xlink:href="#m78c097fb03" y="274.505142857"/>
     <use style="fill:#008000;stroke:#000000;stroke-linejoin:bevel;stroke-width:0.5;" x="201.456" xlink:href="#m78c097fb03" y="273.764571429"/>
     <use style="fill:#008000;stroke:#000000;stroke-linejoin:bevel;stroke-width:0.5;" x="203.688" xlink:href="#m78c097fb03" y="276.48"/>
     <use style="fill:#008000;stroke:#000000;stroke-linejoin:bevel;stroke-width:0.5;" x="205.92" xlink:href="#m78c097fb03" y="279.936"/>
     <use style="fill:#008000;stroke:#000000;stroke-linejoin:bevel;stroke-width:0.5;" x="208.152" xlink:href="#m78c097fb03" y="277.961142857"/>
     <use style="fill:#008000;stroke:#000000;stroke-linejoin:bevel;stroke-width:0.5;" x="210.384" xlink:href="#m78c097fb03" y="284.132571429"/>
     <use style="fill:#008000;stroke:#000000;stroke-linejoin:bevel;stroke-width:0.5;" x="212.616" xlink:href="#m78c097fb03" y="283.145142857"/>
     <use style="fill:#008000;stroke:#000000;stroke-linejoin:bevel;stroke-width:0.5;" x="214.848" xlink:href="#m78c097fb03" y="285.12"/>
     <use style="fill:#008000;stroke:#000000;stroke-linejoin:bevel;stroke-width:0.5;" x="217.08" xlink:href="#m78c097fb03" y="281.417142857"/>
     <use style="fill:#008000;stroke:#000000;stroke-linejoin:bevel;stroke-width:0.5;" x="219.312" xlink:href="#m78c097fb03" y="278.454857143"/>
     <use style="fill:#008000;stroke:#000000;stroke-linejoin:bevel;stroke-width:0.5;" x="221.544" xlink:href="#m78c097fb03" y="277.961142857"/>
     <use style="fill:#008000;stroke:#000000;stroke-linejoin:bevel;stroke-width:0.5;" x="223.776" xlink:href="#m78c097fb03" y="273.517714286"/>
     <use style="fill:#008000;stroke:#000000;stroke-linejoin:bevel;stroke-width:0.5;" x="226.008" xlink:href="#m78c097fb03" y="274.998857143"/>
     <use style="fill:#008000;stroke:#000000;stroke-linejoin:bevel;stroke-width:0.5;" x="228.24" xlink:href="#m78c097fb03" y="271.542857143"/>
     <use style="fill:#008000;stroke:#000000;stroke-linejoin:bevel;stroke-width:0.5;" x="230.472" xlink:href="#m78c097fb03" y="272.530285714"/>
     <use style="fill:#008000;stroke:#000000;stroke-linejoin:bevel;stroke-width:0.5;" x="232.704" xlink:href="#m78c097fb03" y="274.998857143"/>
     <use style="fill:#008000;stroke:#000000;stroke-linejoin:bevel;stroke-width:0.5;" x="234.936" xlink:href="#m78c097fb03" y="275.739428571"/>
     <use style="fill:#008000;stroke:#000000;stroke-linejoin:bevel;stroke-width:0.5;" x="237.168" xlink:href="#m78c097fb03" y="273.024"/>
     <use style="fill:#008000;stroke:#000000;stroke-linejoin:bevel;stroke-width:0.5;" x="239.4" xlink:href="#m78c097fb03" y="274.258285714"/>
     <use style="fill:#008000;stroke:#000000;stroke-linejoin:bevel;stroke-width:0.5;" x="241.632" xlink:href="#m78c097fb03" y="278.208"/>
     <use style="fill:#008000;stroke:#000000;stroke-linejoin:bevel;stroke-width:0.5;" x="243.864" xlink:href="#m78c097fb03" y="277.467428571"/>
     <use style="fill:#008000;stroke:#000000;stroke-linejoin:bevel;stroke-width:0.5;" x="246.096" xlink:href="#m78c097fb03" y="279.689142857"/>
     <use style="fill:#008000;stroke:#000000;stroke-linejoin:bevel;stroke-width:0.5;" x="248.328" xlink:href="#m78c097fb03" y="281.664"/>
     <use style="fill:#008000;stroke:#000000;stroke-linejoin:bevel;stroke-width:0.5;" x="250.56" xlink:href="#m78c097fb03" y="281.170285714"/>
     <use style="fill:#008000;stroke:#000000;stroke-linejoin:bevel;stroke-width:0.5;" x="252.792" xlink:href="#m78c097fb03" y="281.170285714"/>
     <use style="fill:#008000;stroke:#000000;stroke-linejoin:bevel;stroke-width:0.5;" x="255.024" xlink:href="#m78c097fb03" y="278.701714286"/>
     <use style="fill:#008000;stroke:#000000;stroke-linejoin:bevel;stroke-width:0.5;" x="257.256" xlink:href="#m78c097fb03" y="276.233142857"/>
     <use style="fill:#008000;stroke:#000000;stroke-linejoin:bevel;stroke-width:0.5;" x="259.488" xlink:href="#m78c097fb03" y="278.701714286"/>
     <use style="fill:#008000;stroke:#000000;stroke-linejoin:bevel;stroke-width:0.5;" x="261.72" xlink:href="#m78c097fb03" y="274.998857143"/>
     <use style="fill:#008000;stroke:#000000;stroke-linejoin:bevel;stroke-width:0.5;" x="263.952" xlink:href="#m78c097fb03" y="280.182857143"/>
     <use style="fill:#008000;stroke:#000000;stroke-linejoin:bevel;stroke-width:0.5;" x="266.184" xlink:href="#m78c097fb03" y="281.170285714"/>
     <use style="fill:#008000;stroke:#000000;stroke-linejoin:bevel;stroke-width:0.5;" x="268.416" xlink:href="#m78c097fb03" y="282.898285714"/>
     <use style="fill:#008000;stroke:#000000;stroke-linejoin:bevel;stroke-width:0.5;" x="270.648" xlink:href="#m78c097fb03" y="283.392"/>
     <use style="fill:#008000;stroke:#000000;stroke-linejoin:bevel;stroke-width:0.5;" x="272.88" xlink:href="#m78c097fb03" y="284.379428571"/>
     <use style="fill:#008000;stroke:#000000;stroke-linejoin:bevel;stroke-width:0.5;" x="275.112" xlink:href="#m78c097fb03" y="283.885714286"/>
     <use style="fill:#008000;stroke:#000000;stroke-linejoin:bevel;stroke-width:0.5;" x="277.344" xlink:href="#m78c097fb03" y="284.132571429"/>
     <use style="fill:#008000;stroke:#000000;stroke-linejoin:bevel;stroke-width:0.5;" x="279.576" xlink:href="#m78c097fb03" y="284.873142857"/>
     <use style="fill:#008000;stroke:#000000;stroke-linejoin:bevel;stroke-width:0.5;" x="281.808" xlink:href="#m78c097fb03" y="284.873142857"/>
     <use style="fill:#008000;stroke:#000000;stroke-linejoin:bevel;stroke-width:0.5;" x="284.04" xlink:href="#m78c097fb03" y="283.638857143"/>
     <use style="fill:#008000;stroke:#000000;stroke-linejoin:bevel;stroke-width:0.5;" x="286.272" xlink:href="#m78c097fb03" y="285.366857143"/>
     <use style="fill:#008000;stroke:#000000;stroke-linejoin:bevel;stroke-width:0.5;" x="288.504" xlink:href="#m78c097fb03" y="283.638857143"/>
     <use style="fill:#008000;stroke:#000000;stroke-linejoin:bevel;stroke-width:0.5;" x="290.736" xlink:href="#m78c097fb03" y="282.404571429"/>
     <use style="fill:#008000;stroke:#000000;stroke-linejoin:bevel;stroke-width:0.5;" x="292.968" xlink:href="#m78c097fb03" y="283.885714286"/>
     <use style="fill:#008000;stroke:#000000;stroke-linejoin:bevel;stroke-width:0.5;" x="295.2" xlink:href="#m78c097fb03" y="283.145142857"/>
     <use style="fill:#008000;stroke:#000000;stroke-linejoin:bevel;stroke-width:0.5;" x="297.432" xlink:href="#m78c097fb03" y="285.366857143"/>
     <use style="fill:#008000;stroke:#000000;stroke-linejoin:bevel;stroke-width:0.5;" x="299.664" xlink:href="#m78c097fb03" y="282.898285714"/>
     <use style="fill:#008000;stroke:#000000;stroke-linejoin:bevel;stroke-width:0.5;" x="301.896" xlink:href="#m78c097fb03" y="282.404571429"/>
     <use style="fill:#008000;stroke:#000000;stroke-linejoin:bevel;stroke-width:0.5;" x="304.128" xlink:href="#m78c097fb03" y="281.170285714"/>
     <use style="fill:#008000;stroke:#000000;stroke-linejoin:bevel;stroke-width:0.5;" x="306.36" xlink:href="#m78c097fb03" y="279.442285714"/>
     <use style="fill:#008000;stroke:#000000;stroke-linejoin:bevel;stroke-width:0.5;" x="308.592" xlink:href="#m78c097fb03" y="283.392"/>
     <use style="fill:#008000;stroke:#000000;stroke-linejoin:bevel;stroke-width:0.5;" x="310.824" xlink:href="#m78c097fb03" y="279.689142857"/>
     <use style="fill:#008000;stroke:#000000;stroke-linejoin:bevel;stroke-width:0.5;" x="313.056" xlink:href="#m78c097fb03" y="279.936"/>
     <use style="fill:#008000;stroke:#000000;stroke-linejoin:bevel;stroke-width:0.5;" x="315.288" xlink:href="#m78c097fb03" y="278.701714286"/>
     <use style="fill:#008000;stroke:#000000;stroke-linejoin:bevel;stroke-width:0.5;" x="317.52" xlink:href="#m78c097fb03" y="279.195428571"/>
     <use style="fill:#008000;stroke:#000000;stroke-linejoin:bevel;stroke-width:0.5;" x="319.752" xlink:href="#m78c097fb03" y="279.936"/>
     <use style="fill:#008000;stroke:#000000;stroke-linejoin:bevel;stroke-width:0.5;" x="321.984" xlink:href="#m78c097fb03" y="281.910857143"/>
     <use style="fill:#008000;stroke:#000000;stroke-linejoin:bevel;stroke-width:0.5;" x="324.216" xlink:href="#m78c097fb03" y="280.182857143"/>
     <use style="fill:#008000;stroke:#000000;stroke-linejoin:bevel;stroke-width:0.5;" x="326.448" xlink:href="#m78c097fb03" y="279.936"/>
     <use style="fill:#008000;stroke:#000000;stroke-linejoin:bevel;stroke-width:0.5;" x="328.68" xlink:href="#m78c097fb03" y="275.986285714"/>
     <use style="fill:#008000;stroke:#000000;stroke-linejoin:bevel;stroke-width:0.5;" x="330.912" xlink:href="#m78c097fb03" y="274.998857143"/>
     <use style="fill:#008000;stroke:#000000;stroke-linejoin:bevel;stroke-width:0.5;" x="333.144" xlink:href="#m78c097fb03" y="273.024"/>
     <use style="fill:#008000;stroke:#000000;stroke-linejoin:bevel;stroke-width:0.5;" x="335.376" xlink:href="#m78c097fb03" y="270.802285714"/>
     <use style="fill:#008000;stroke:#000000;stroke-linejoin:bevel;stroke-width:0.5;" x="337.608" xlink:href="#m78c097fb03" y="274.752"/>
     <use style="fill:#008000;stroke:#000000;stroke-linejoin:bevel;stroke-width:0.5;" x="339.84" xlink:href="#m78c097fb03" y="277.467428571"/>
     <use style="fill:#008000;stroke:#000000;stroke-linejoin:bevel;stroke-width:0.5;" x="342.072" xlink:href="#m78c097fb03" y="271.789714286"/>
     <use style="fill:#008000;stroke:#000000;stroke-linejoin:bevel;stroke-width:0.5;" x="344.304" xlink:href="#m78c097fb03" y="275.739428571"/>
     <use style="fill:#008000;stroke:#000000;stroke-linejoin:bevel;stroke-width:0.5;" x="346.536" xlink:href="#m78c097fb03" y="278.948571429"/>
     <use style="fill:#008000;stroke:#000000;stroke-linejoin:bevel;stroke-width:0.5;" x="348.768" xlink:href="#m78c097fb03" y="274.258285714"/>
     <use style="fill:#008000;stroke:#000000;stroke-linejoin:bevel;stroke-width:0.5;" x="351.0" xlink:href="#m78c097fb03" y="273.764571429"/>
     <use style="fill:#008000;stroke:#000000;stroke-linejoin:bevel;stroke-width:0.5;" x="353.232" xlink:href="#m78c097fb03" y="276.726857143"/>
     <use style="fill:#008000;stroke:#000000;stroke-linejoin:bevel;stroke-width:0.5;" x="355.464" xlink:href="#m78c097fb03" y="276.973714286"/>
     <use style="fill:#008000;stroke:#000000;stroke-linejoin:bevel;stroke-width:0.5;" x="357.696" xlink:href="#m78c097fb03" y="281.910857143"/>
     <use style="fill:#008000;stroke:#000000;stroke-linejoin:bevel;stroke-width:0.5;" x="359.928" xlink:href="#m78c097fb03" y="279.689142857"/>
     <use style="fill:#008000;stroke:#000000;stroke-linejoin:bevel;stroke-width:0.5;" x="362.16" xlink:href="#m78c097fb03" y="278.948571429"/>
     <use style="fill:#008000;stroke:#000000;stroke-linejoin:bevel;stroke-width:0.5;" x="364.392" xlink:href="#m78c097fb03" y="274.998857143"/>
     <use style="fill:#008000;stroke:#000000;stroke-linejoin:bevel;stroke-width:0.5;" x="366.624" xlink:href="#m78c097fb03" y="277.961142857"/>
     <use style="fill:#008000;stroke:#000000;stroke-linejoin:bevel;stroke-width:0.5;" x="368.856" xlink:href="#m78c097fb03" y="276.973714286"/>
     <use style="fill:#008000;stroke:#000000;stroke-linejoin:bevel;stroke-width:0.5;" x="371.088" xlink:href="#m78c097fb03" y="278.701714286"/>
     <use style="fill:#008000;stroke:#000000;stroke-linejoin:bevel;stroke-width:0.5;" x="373.32" xlink:href="#m78c097fb03" y="277.961142857"/>
     <use style="fill:#008000;stroke:#000000;stroke-linejoin:bevel;stroke-width:0.5;" x="375.552" xlink:href="#m78c097fb03" y="280.182857143"/>
     <use style="fill:#008000;stroke:#000000;stroke-linejoin:bevel;stroke-width:0.5;" x="377.784" xlink:href="#m78c097fb03" y="273.764571429"/>
     <use style="fill:#008000;stroke:#000000;stroke-linejoin:bevel;stroke-width:0.5;" x="380.016" xlink:href="#m78c097fb03" y="272.530285714"/>
     <use style="fill:#008000;stroke:#000000;stroke-linejoin:bevel;stroke-width:0.5;" x="382.248" xlink:href="#m78c097fb03" y="269.321142857"/>
     <use style="fill:#008000;stroke:#000000;stroke-linejoin:bevel;stroke-width:0.5;" x="384.48" xlink:href="#m78c097fb03" y="272.283428571"/>
     <use style="fill:#008000;stroke:#000000;stroke-linejoin:bevel;stroke-width:0.5;" x="386.712" xlink:href="#m78c097fb03" y="273.517714286"/>
     <use style="fill:#008000;stroke:#000000;stroke-linejoin:bevel;stroke-width:0.5;" x="388.944" xlink:href="#m78c097fb03" y="270.802285714"/>
     <use style="fill:#008000;stroke:#000000;stroke-linejoin:bevel;stroke-width:0.5;" x="391.176" xlink:href="#m78c097fb03" y="270.555428571"/>
     <use style="fill:#008000;stroke:#000000;stroke-linejoin:bevel;stroke-width:0.5;" x="393.408" xlink:href="#m78c097fb03" y="273.270857143"/>
     <use style="fill:#008000;stroke:#000000;stroke-linejoin:bevel;stroke-width:0.5;" x="395.64" xlink:href="#m78c097fb03" y="274.258285714"/>
     <use style="fill:#008000;stroke:#000000;stroke-linejoin:bevel;stroke-width:0.5;" x="397.872" xlink:href="#m78c097fb03" y="271.789714286"/>
     <use style="fill:#008000;stroke:#000000;stroke-linejoin:bevel;stroke-width:0.5;" x="400.104" xlink:href="#m78c097fb03" y="273.517714286"/>
     <use style="fill:#008000;stroke:#000000;stroke-linejoin:bevel;stroke-width:0.5;" x="402.336" xlink:href="#m78c097fb03" y="274.258285714"/>
     <use style="fill:#008000;stroke:#000000;stroke-linejoin:bevel;stroke-width:0.5;" x="404.568" xlink:href="#m78c097fb03" y="274.998857143"/>
     <use style="fill:#008000;stroke:#000000;stroke-linejoin:bevel;stroke-width:0.5;" x="406.8" xlink:href="#m78c097fb03" y="277.220571429"/>
     <use style="fill:#008000;stroke:#000000;stroke-linejoin:bevel;stroke-width:0.5;" x="409.032" xlink:href="#m78c097fb03" y="271.789714286"/>
     <use style="fill:#008000;stroke:#000000;stroke-linejoin:bevel;stroke-width:0.5;" x="411.264" xlink:href="#m78c097fb03" y="269.814857143"/>
     <use style="fill:#008000;stroke:#000000;stroke-linejoin:bevel;stroke-width:0.5;" x="413.496" xlink:href="#m78c097fb03" y="271.789714286"/>
     <use style="fill:#008000;stroke:#000000;stroke-linejoin:bevel;stroke-width:0.5;" x="415.728" xlink:href="#m78c097fb03" y="277.467428571"/>
     <use style="fill:#008000;stroke:#000000;stroke-linejoin:bevel;stroke-width:0.5;" x="417.96" xlink:href="#m78c097fb03" y="277.714285714"/>
     <use style="fill:#008000;stroke:#000000;stroke-linejoin:bevel;stroke-width:0.5;" x="420.192" xlink:href="#m78c097fb03" y="277.961142857"/>
     <use style="fill:#008000;stroke:#000000;stroke-linejoin:bevel;stroke-width:0.5;" x="422.424" xlink:href="#m78c097fb03" y="278.208"/>
     <use style="fill:#008000;stroke:#000000;stroke-linejoin:bevel;stroke-width:0.5;" x="424.656" xlink:href="#m78c097fb03" y="272.530285714"/>
     <use style="fill:#008000;stroke:#000000;stroke-linejoin:bevel;stroke-width:0.5;" x="426.888" xlink:href="#m78c097fb03" y="275.492571429"/>
     <use style="fill:#008000;stroke:#000000;stroke-linejoin:bevel;stroke-width:0.5;" x="429.12" xlink:href="#m78c097fb03" y="275.986285714"/>
     <use style="fill:#008000;stroke:#000000;stroke-linejoin:bevel;stroke-width:0.5;" x="431.352" xlink:href="#m78c097fb03" y="279.195428571"/>
     <use style="fill:#008000;stroke:#000000;stroke-linejoin:bevel;stroke-width:0.5;" x="433.584" xlink:href="#m78c097fb03" y="285.12"/>
     <use style="fill:#008000;stroke:#000000;stroke-linejoin:bevel;stroke-width:0.5;" x="435.816" xlink:href="#m78c097fb03" y="287.835428571"/>
     <use style="fill:#008000;stroke:#000000;stroke-linejoin:bevel;stroke-width:0.5;" x="438.048" xlink:href="#m78c097fb03" y="285.613714286"/>
     <use style="fill:#008000;stroke:#000000;stroke-linejoin:bevel;stroke-width:0.5;" x="440.28" xlink:href="#m78c097fb03" y="284.873142857"/>
     <use style="fill:#008000;stroke:#000000;stroke-linejoin:bevel;stroke-width:0.5;" x="442.512" xlink:href="#m78c097fb03" y="286.107428571"/>
     <use style="fill:#008000;stroke:#000000;stroke-linejoin:bevel;stroke-width:0.5;" x="444.744" xlink:href="#m78c097fb03" y="283.885714286"/>
     <use style="fill:#008000;stroke:#000000;stroke-linejoin:bevel;stroke-width:0.5;" x="446.976" xlink:href="#m78c097fb03" y="285.366857143"/>
     <use style="fill:#008000;stroke:#000000;stroke-linejoin:bevel;stroke-width:0.5;" x="449.208" xlink:href="#m78c097fb03" y="283.392"/>
     <use style="fill:#008000;stroke:#000000;stroke-linejoin:bevel;stroke-width:0.5;" x="451.44" xlink:href="#m78c097fb03" y="285.12"/>
     <use style="fill:#008000;stroke:#000000;stroke-linejoin:bevel;stroke-width:0.5;" x="453.672" xlink:href="#m78c097fb03" y="286.107428571"/>
     <use style="fill:#008000;stroke:#000000;stroke-linejoin:bevel;stroke-width:0.5;" x="455.904" xlink:href="#m78c097fb03" y="290.304"/>
     <use style="fill:#008000;stroke:#000000;stroke-linejoin:bevel;stroke-width:0.5;" x="458.136" xlink:href="#m78c097fb03" y="289.069714286"/>
     <use style="fill:#008000;stroke:#000000;stroke-linejoin:bevel;stroke-width:0.5;" x="460.368" xlink:href="#m78c097fb03" y="291.785142857"/>
     <use style="fill:#008000;stroke:#000000;stroke-linejoin:bevel;stroke-width:0.5;" x="462.6" xlink:href="#m78c097fb03" y="292.772571429"/>
     <use style="fill:#008000;stroke:#000000;stroke-linejoin:bevel;stroke-width:0.5;" x="464.832" xlink:href="#m78c097fb03" y="288.576"/>
     <use style="fill:#008000;stroke:#000000;stroke-linejoin:bevel;stroke-width:0.5;" x="467.064" xlink:href="#m78c097fb03" y="282.898285714"/>
     <use style="fill:#008000;stroke:#000000;stroke-linejoin:bevel;stroke-width:0.5;" x="469.296" xlink:href="#m78c097fb03" y="283.392"/>
     <use style="fill:#008000;stroke:#000000;stroke-linejoin:bevel;stroke-width:0.5;" x="471.528" xlink:href="#m78c097fb03" y="280.182857143"/>
     <use style="fill:#008000;stroke:#000000;stroke-linejoin:bevel;stroke-width:0.5;" x="473.76" xlink:href="#m78c097fb03" y="276.973714286"/>
     <use style="fill:#008000;stroke:#000000;stroke-linejoin:bevel;stroke-width:0.5;" x="475.992" xlink:href="#m78c097fb03" y="278.208"/>
     <use style="fill:#008000;stroke:#000000;stroke-linejoin:bevel;stroke-width:0.5;" x="478.224" xlink:href="#m78c097fb03" y="277.220571429"/>
     <use style="fill:#008000;stroke:#000000;stroke-linejoin:bevel;stroke-width:0.5;" x="480.456" xlink:href="#m78c097fb03" y="278.208"/>
     <use style="fill:#008000;stroke:#000000;stroke-linejoin:bevel;stroke-width:0.5;" x="482.688" xlink:href="#m78c097fb03" y="277.220571429"/>
     <use style="fill:#008000;stroke:#000000;stroke-linejoin:bevel;stroke-width:0.5;" x="484.92" xlink:href="#m78c097fb03" y="274.752"/>
     <use style="fill:#008000;stroke:#000000;stroke-linejoin:bevel;stroke-width:0.5;" x="487.152" xlink:href="#m78c097fb03" y="275.245714286"/>
     <use style="fill:#008000;stroke:#000000;stroke-linejoin:bevel;stroke-width:0.5;" x="489.384" xlink:href="#m78c097fb03" y="277.714285714"/>
     <use style="fill:#008000;stroke:#000000;stroke-linejoin:bevel;stroke-width:0.5;" x="491.616" xlink:href="#m78c097fb03" y="273.517714286"/>
     <use style="fill:#008000;stroke:#000000;stroke-linejoin:bevel;stroke-width:0.5;" x="493.848" xlink:href="#m78c097fb03" y="269.568"/>
     <use style="fill:#008000;stroke:#000000;stroke-linejoin:bevel;stroke-width:0.5;" x="496.08" xlink:href="#m78c097fb03" y="269.814857143"/>
     <use style="fill:#008000;stroke:#000000;stroke-linejoin:bevel;stroke-width:0.5;" x="498.312" xlink:href="#m78c097fb03" y="275.245714286"/>
     <use style="fill:#008000;stroke:#000000;stroke-linejoin:bevel;stroke-width:0.5;" x="500.544" xlink:href="#m78c097fb03" y="275.492571429"/>
     <use style="fill:#008000;stroke:#000000;stroke-linejoin:bevel;stroke-width:0.5;" x="502.776" xlink:href="#m78c097fb03" y="276.726857143"/>
     <use style="fill:#008000;stroke:#000000;stroke-linejoin:bevel;stroke-width:0.5;" x="505.008" xlink:href="#m78c097fb03" y="275.986285714"/>
     <use style="fill:#008000;stroke:#000000;stroke-linejoin:bevel;stroke-width:0.5;" x="507.24" xlink:href="#m78c097fb03" y="274.998857143"/>
     <use style="fill:#008000;stroke:#000000;stroke-linejoin:bevel;stroke-width:0.5;" x="509.472" xlink:href="#m78c097fb03" y="280.182857143"/>
     <use style="fill:#008000;stroke:#000000;stroke-linejoin:bevel;stroke-width:0.5;" x="511.704" xlink:href="#m78c097fb03" y="280.923428571"/>
     <use style="fill:#008000;stroke:#000000;stroke-linejoin:bevel;stroke-width:0.5;" x="513.936" xlink:href="#m78c097fb03" y="281.170285714"/>
     <use style="fill:#008000;stroke:#000000;stroke-linejoin:bevel;stroke-width:0.5;" x="516.168" xlink:href="#m78c097fb03" y="278.948571429"/>
    </g>
   </g>
   <g id="line2d_3">
    <path clip-path="url(#p7ff5b81e1d)" d="
M72 370.286
L74.232 335.726
L76.464 311.287
L78.696 292.032
L80.928 278.455
L83.16 270.555
L85.392 253.029
L87.624 245.623
L89.856 236.242
L92.088 224.393
L94.32 216
L96.552 213.531
L98.784 211.31
L101.016 213.038
L103.248 212.544
L105.48 215.753
L107.712 212.544
L109.944 211.557
L112.176 210.075
L114.408 209.335
L116.64 207.113
L118.872 209.829
L121.104 213.531
L123.336 216.494
L125.568 219.703
L127.8 216.494
L130.032 218.469
L132.264 225.874
L134.496 230.318
L136.728 234.267
L138.96 237.723
L141.192 238.217
L143.424 236.983
L145.656 236.489
L150.12 245.376
L152.352 247.104
L154.584 252.041
L156.816 255.003
L159.048 258.213
L161.28 263.89
L163.512 267.099
L165.744 270.802
L167.976 272.53
L170.208 273.518
L172.44 273.024
L174.672 269.815
L176.904 277.961
L179.136 283.639
L181.368 288.823
L183.6 288.576
L185.832 285.614
L188.064 287.095
L190.296 290.798
L192.528 284.873
L194.76 285.614
L196.992 289.07
L199.224 293.266
L201.456 295.735
L203.688 295.241
L205.92 293.76
L208.152 294.007
L210.384 295.488
L212.616 296.722
L214.848 298.45
L217.08 298.45
L219.312 297.216
L221.544 297.957
L223.776 300.425
L226.008 300.178
L228.24 302.4
L230.472 304.869
L232.704 299.685
L234.936 301.906
L237.168 302.894
L239.4 306.103
L241.632 308.078
L243.864 306.35
L246.096 302.894
L248.328 297.957
L250.56 295.241
L252.792 295.982
L255.024 294.994
L257.256 296.229
L259.488 294.254
L261.72 296.969
L263.952 300.178
L266.184 306.103
L268.416 302.4
L270.648 303.387
L272.88 300.919
L275.112 303.634
L277.344 302.894
L279.576 304.869
L281.808 303.387
L284.04 307.09
L286.272 304.622
L288.504 305.362
L290.736 305.856
L292.968 306.597
L297.432 301.659
L299.664 299.438
L301.896 298.944
L304.128 302.894
L306.36 299.685
L308.592 299.931
L310.824 296.969
L313.056 294.747
L315.288 294.994
L317.52 296.722
L319.752 294.501
L321.984 298.697
L324.216 299.685
L326.448 301.166
L328.68 297.216
L330.912 300.178
L335.376 294.254
L337.608 294.501
L339.84 294.254
L342.072 292.032
L344.304 294.254
L346.536 290.304
L348.768 291.785
L353.232 295.735
L355.464 294.747
L357.696 297.71
L359.928 296.722
L362.16 294.747
L364.392 295.241
L366.624 294.501
L368.856 294.994
L371.088 294.747
L373.32 294.007
L375.552 297.216
L377.784 293.266
L380.016 290.304
L382.248 290.057
L384.48 292.526
L386.712 291.538
L388.944 293.019
L391.176 293.76
L393.408 292.773
L395.64 292.032
L397.872 286.601
L400.104 288.082
L402.336 291.785
L404.568 295.241
L409.032 297.71
L411.264 298.45
L413.496 300.178
L415.728 299.191
L417.96 301.413
L420.192 299.438
L422.424 299.438
L424.656 299.931
L426.888 295.982
L429.12 294.994
L431.352 300.178
L433.584 296.475
L435.816 295.488
L438.048 297.71
L440.28 300.919
L442.512 300.425
L444.744 298.944
L446.976 295.735
L449.208 295.488
L451.44 301.166
L453.672 299.191
L455.904 297.957
L458.136 299.191
L460.368 296.722
L462.6 291.785
L464.832 290.304
L467.064 289.317
L469.296 286.848
L471.528 291.291
L475.992 290.798
L478.224 289.563
L480.456 290.551
L482.688 290.798
L484.92 292.773
L487.152 296.475
L489.384 290.798
L491.616 288.823
L493.848 291.291
L496.08 290.057
L498.312 287.835
L500.544 289.07
L502.776 294.501
L505.008 297.216
L507.24 294.747
L509.472 298.944
L511.704 300.178
L513.936 301.659
L516.168 300.672
L516.168 300.672" style="fill:none;stroke:#0000ff;stroke-dasharray:3.000000,5.000000,1.000000,5.000000;stroke-dashoffset:0.0;"/>
   </g>
   <g id="line2d_4">
    <path clip-path="url(#p7ff5b81e1d)" d="
M72 376.457
L74.232 350.784
L76.464 329.061
L78.696 315.237
L80.928 305.856
L83.16 299.685
L85.392 291.785
L87.624 287.342
L89.856 281.17
L92.088 274.258
L94.32 269.568
L96.552 268.581
L101.016 263.643
L103.248 266.359
L105.48 268.334
L107.712 264.384
L109.944 267.099
L112.176 267.84
L114.408 267.346
L116.64 265.371
L118.872 268.334
L121.104 273.518
L123.336 273.765
L125.568 276.233
L127.8 278.949
L130.032 280.43
L132.264 284.379
L134.496 289.07
L136.728 290.304
L138.96 294.747
L141.192 302.4
L143.424 301.659
L145.656 299.438
L147.888 299.438
L150.12 306.35
L152.352 306.843
L154.584 308.325
L156.816 306.597
L159.048 306.35
L161.28 310.053
L163.512 313.015
L165.744 316.224
L167.976 318.199
L170.208 318.446
L174.672 318.446
L176.904 323.136
L179.136 324.37
L181.368 326.592
L183.6 326.098
L185.832 324.123
L188.064 324.123
L190.296 323.136
L192.528 322.395
L196.992 324.37
L199.224 326.098
L201.456 326.345
L203.688 324.864
L205.92 323.877
L208.152 323.383
L210.384 322.149
L212.616 327.086
L214.848 329.307
L217.08 327.826
L219.312 328.814
L221.544 331.776
L223.776 329.307
L226.008 328.567
L228.24 327.086
L230.472 327.579
L232.704 325.605
L234.936 325.851
L237.168 327.086
L239.4 327.086
L241.632 329.307
L243.864 328.32
L246.096 330.542
L248.328 331.529
L250.56 333.504
L252.792 333.01
L255.024 335.726
L257.256 331.282
L259.488 333.01
L261.72 333.504
L263.952 332.27
L266.184 330.295
L268.416 330.789
L270.648 330.789
L272.88 329.061
L275.112 329.061
L277.344 331.529
L279.576 330.789
L281.808 330.789
L284.04 334.738
L286.272 333.998
L288.504 331.282
L290.736 331.035
L292.968 332.27
L295.2 331.035
L297.432 331.035
L299.664 327.086
L301.896 329.061
L304.128 331.282
L306.36 330.542
L308.592 332.763
L310.824 332.023
L313.056 331.776
L315.288 335.232
L317.52 336.219
L319.752 336.466
L321.984 333.257
L324.216 333.504
L326.448 334.245
L328.68 333.01
L330.912 334.985
L333.144 334.985
L335.376 336.96
L337.608 335.479
L339.84 334.738
L342.072 333.257
L344.304 332.517
L346.536 334.491
L348.768 334.738
L353.232 338.194
L355.464 340.91
L357.696 340.91
L359.928 338.688
L362.16 341.65
L364.392 338.441
L366.624 337.947
L368.856 335.973
L371.088 336.219
L373.32 337.207
L375.552 337.701
L377.784 335.479
L380.016 337.947
L382.248 337.454
L384.48 333.504
L386.712 333.01
L388.944 329.307
L391.176 326.592
L393.408 327.579
L395.64 329.061
L397.872 332.517
L400.104 334.738
L402.336 333.998
L404.568 331.776
L406.8 333.01
L409.032 330.048
L411.264 329.061
L413.496 327.579
L415.728 327.826
L417.96 328.567
L420.192 325.605
L422.424 324.123
L424.656 323.63
L426.888 323.63
L429.12 323.383
L431.352 322.149
L433.584 324.864
L435.816 325.851
L438.048 322.642
L440.28 324.617
L442.512 329.801
L444.744 327.579
L446.976 330.789
L449.208 330.789
L451.44 330.295
L453.672 328.567
L455.904 327.086
L458.136 326.839
L460.368 329.061
L462.6 329.307
L464.832 331.282
L467.064 329.554
L469.296 329.061
L471.528 331.035
L473.76 330.295
L475.992 329.061
L478.224 330.542
L480.456 329.554
L482.688 329.801
L484.92 331.035
L487.152 334.491
L489.384 335.232
L493.848 330.789
L496.08 328.073
L498.312 328.32
L500.544 326.839
L502.776 331.035
L505.008 332.023
L507.24 333.257
L509.472 332.763
L511.704 333.504
L513.936 331.035
L516.168 328.814
L516.168 328.814" style="fill:none;stroke:#bfbf00;stroke-dasharray:3.000000,5.000000,1.000000,5.000000;stroke-dashoffset:0.0;"/>
   </g>
   <g id="patch_3">
    <path d="
M72 43.2
L518.4 43.2" style="fill:none;stroke:#000000;stroke-linecap:square;stroke-linejoin:miter;"/>
   </g>
   <g id="patch_4">
    <path d="
M518.4 388.8
L518.4 43.2" style="fill:none;stroke:#000000;stroke-linecap:square;stroke-linejoin:miter;"/>
   </g>
   <g id="patch_5">
    <path d="
M72 388.8
L518.4 388.8" style="fill:none;stroke:#000000;stroke-linecap:square;stroke-linejoin:miter;"/>
   </g>
   <g id="patch_6">
    <path d="
M72 388.8
L72 43.2" style="fill:none;stroke:#000000;stroke-linecap:square;stroke-linejoin:miter;"/>
   </g>
   <g id="matplotlib.axis_1">
    <g id="xtick_1">
     <g id="line2d_5">
      <defs>
       <path d="
M0 0
L0 -4" id="m93b0483c22" style="stroke:#000000;stroke-width:0.5;"/>
      </defs>
      <g>
       <use style="stroke:#000000;stroke-width:0.5;" x="72.0" xlink:href="#m93b0483c22" y="388.8"/>
      </g>
     </g>
     <g id="line2d_6">
      <defs>
       <path d="
M0 0
L0 4" id="m741efc42ff" style="stroke:#000000;stroke-width:0.5;"/>
      </defs>
      <g>
       <use style="stroke:#000000;stroke-width:0.5;" x="72.0" xlink:href="#m741efc42ff" y="43.2"/>
      </g>
     </g>
     <g id="text_1">
      <!-- 0 -->
      <defs>
       <path d="
M31.7812 66.4062
Q24.1719 66.4062 20.3281 58.9062
Q16.5 51.4219 16.5 36.375
Q16.5 21.3906 20.3281 13.8906
Q24.1719 6.39062 31.7812 6.39062
Q39.4531 6.39062 43.2812 13.8906
Q47.125 21.3906 47.125 36.375
Q47.125 51.4219 43.2812 58.9062
Q39.4531 66.4062 31.7812 66.4062
M31.7812 74.2188
Q44.0469 74.2188 50.5156 64.5156
Q56.9844 54.8281 56.9844 36.375
Q56.9844 17.9688 50.5156 8.26562
Q44.0469 -1.42188 31.7812 -1.42188
Q19.5312 -1.42188 13.0625 8.26562
Q6.59375 17.9688 6.59375 36.375
Q6.59375 54.8281 13.0625 64.5156
Q19.5312 74.2188 31.7812 74.2188" id="BitstreamVeraSans-Roman-30"/>
      </defs>
      <g transform="translate(68.9765625 401.918125)scale(0.12 -0.12)">
       <use xlink:href="#BitstreamVeraSans-Roman-30"/>
      </g>
     </g>
    </g>
    <g id="xtick_2">
     <g id="line2d_7">
      <g>
       <use style="stroke:#000000;stroke-width:0.5;" x="183.6" xlink:href="#m93b0483c22" y="388.8"/>
      </g>
     </g>
     <g id="line2d_8">
      <g>
       <use style="stroke:#000000;stroke-width:0.5;" x="183.6" xlink:href="#m741efc42ff" y="43.2"/>
      </g>
     </g>
     <g id="text_2">
      <!-- 50 -->
      <defs>
       <path d="
M10.7969 72.9062
L49.5156 72.9062
L49.5156 64.5938
L19.8281 64.5938
L19.8281 46.7344
Q21.9688 47.4688 24.1094 47.8281
Q26.2656 48.1875 28.4219 48.1875
Q40.625 48.1875 47.75 41.5
Q54.8906 34.8125 54.8906 23.3906
Q54.8906 11.625 47.5625 5.09375
Q40.2344 -1.42188 26.9062 -1.42188
Q22.3125 -1.42188 17.5469 -0.640625
Q12.7969 0.140625 7.71875 1.70312
L7.71875 11.625
Q12.1094 9.23438 16.7969 8.0625
Q21.4844 6.89062 26.7031 6.89062
Q35.1562 6.89062 40.0781 11.3281
Q45.0156 15.7656 45.0156 23.3906
Q45.0156 31 40.0781 35.4375
Q35.1562 39.8906 26.7031 39.8906
Q22.75 39.8906 18.8125 39.0156
Q14.8906 38.1406 10.7969 36.2812
z
" id="BitstreamVeraSans-Roman-35"/>
      </defs>
      <g transform="translate(176.8265625 401.918125)scale(0.12 -0.12)">
       <use xlink:href="#BitstreamVeraSans-Roman-35"/>
       <use x="63.623046875" xlink:href="#BitstreamVeraSans-Roman-30"/>
      </g>
     </g>
    </g>
    <g id="xtick_3">
     <g id="line2d_9">
      <g>
       <use style="stroke:#000000;stroke-width:0.5;" x="295.2" xlink:href="#m93b0483c22" y="388.8"/>
      </g>
     </g>
     <g id="line2d_10">
      <g>
       <use style="stroke:#000000;stroke-width:0.5;" x="295.2" xlink:href="#m741efc42ff" y="43.2"/>
      </g>
     </g>
     <g id="text_3">
      <!-- 100 -->
      <defs>
       <path d="
M12.4062 8.29688
L28.5156 8.29688
L28.5156 63.9219
L10.9844 60.4062
L10.9844 69.3906
L28.4219 72.9062
L38.2812 72.9062
L38.2812 8.29688
L54.3906 8.29688
L54.3906 0
L12.4062 0
z
" id="BitstreamVeraSans-Roman-31"/>
      </defs>
      <g transform="translate(284.805 401.918125)scale(0.12 -0.12)">
       <use xlink:href="#BitstreamVeraSans-Roman-31"/>
       <use x="63.623046875" xlink:href="#BitstreamVeraSans-Roman-30"/>
       <use x="127.24609375" xlink:href="#BitstreamVeraSans-Roman-30"/>
      </g>
     </g>
    </g>
    <g id="xtick_4">
     <g id="line2d_11">
      <g>
       <use style="stroke:#000000;stroke-width:0.5;" x="406.8" xlink:href="#m93b0483c22" y="388.8"/>
      </g>
     </g>
     <g id="line2d_12">
      <g>
       <use style="stroke:#000000;stroke-width:0.5;" x="406.8" xlink:href="#m741efc42ff" y="43.2"/>
      </g>
     </g>
     <g id="text_4">
      <!-- 150 -->
      <g transform="translate(396.405 401.918125)scale(0.12 -0.12)">
       <use xlink:href="#BitstreamVeraSans-Roman-31"/>
       <use x="63.623046875" xlink:href="#BitstreamVeraSans-Roman-35"/>
       <use x="127.24609375" xlink:href="#BitstreamVeraSans-Roman-30"/>
      </g>
     </g>
    </g>
    <g id="xtick_5">
     <g id="line2d_13">
      <g>
       <use style="stroke:#000000;stroke-width:0.5;" x="518.4" xlink:href="#m93b0483c22" y="388.8"/>
      </g>
     </g>
     <g id="line2d_14">
      <g>
       <use style="stroke:#000000;stroke-width:0.5;" x="518.4" xlink:href="#m741efc42ff" y="43.2"/>
      </g>
     </g>
     <g id="text_5">
      <!-- 200 -->
      <defs>
       <path d="
M19.1875 8.29688
L53.6094 8.29688
L53.6094 0
L7.32812 0
L7.32812 8.29688
Q12.9375 14.1094 22.625 23.8906
Q32.3281 33.6875 34.8125 36.5312
Q39.5469 41.8438 41.4219 45.5312
Q43.3125 49.2188 43.3125 52.7812
Q43.3125 58.5938 39.2344 62.25
Q35.1562 65.9219 28.6094 65.9219
Q23.9688 65.9219 18.8125 64.3125
Q13.6719 62.7031 7.8125 59.4219
L7.8125 69.3906
Q13.7656 71.7812 18.9375 73
Q24.125 74.2188 28.4219 74.2188
Q39.75 74.2188 46.4844 68.5469
Q53.2188 62.8906 53.2188 53.4219
Q53.2188 48.9219 51.5312 44.8906
Q49.8594 40.875 45.4062 35.4062
Q44.1875 33.9844 37.6406 27.2188
Q31.1094 20.4531 19.1875 8.29688" id="BitstreamVeraSans-Roman-32"/>
      </defs>
      <g transform="translate(507.785625 401.918125)scale(0.12 -0.12)">
       <use xlink:href="#BitstreamVeraSans-Roman-32"/>
       <use x="63.623046875" xlink:href="#BitstreamVeraSans-Roman-30"/>
       <use x="127.24609375" xlink:href="#BitstreamVeraSans-Roman-30"/>
      </g>
     </g>
    </g>
   </g>
   <g id="matplotlib.axis_2">
    <g id="ytick_1">
     <g id="line2d_15">
      <defs>
       <path d="
M0 0
L4 0" id="m728421d6d4" style="stroke:#000000;stroke-width:0.5;"/>
      </defs>
      <g>
       <use style="stroke:#000000;stroke-width:0.5;" x="72.0" xlink:href="#m728421d6d4" y="388.8"/>
      </g>
     </g>
     <g id="line2d_16">
      <defs>
       <path d="
M0 0
L-4 0" id="mcb0005524f" style="stroke:#000000;stroke-width:0.5;"/>
      </defs>
      <g>
       <use style="stroke:#000000;stroke-width:0.5;" x="518.4" xlink:href="#mcb0005524f" y="388.8"/>
      </g>
     </g>
     <g id="text_6">
      <!-- 0 -->
      <g transform="translate(61.953125 392.11125)scale(0.12 -0.12)">
       <use xlink:href="#BitstreamVeraSans-Roman-30"/>
      </g>
     </g>
    </g>
    <g id="ytick_2">
     <g id="line2d_17">
      <g>
       <use style="stroke:#000000;stroke-width:0.5;" x="72.0" xlink:href="#m728421d6d4" y="339.428571429"/>
      </g>
     </g>
     <g id="line2d_18">
      <g>
       <use style="stroke:#000000;stroke-width:0.5;" x="518.4" xlink:href="#mcb0005524f" y="339.428571429"/>
      </g>
     </g>
     <g id="text_7">
      <!-- 200 -->
      <g transform="translate(46.77125 342.739821429)scale(0.12 -0.12)">
       <use xlink:href="#BitstreamVeraSans-Roman-32"/>
       <use x="63.623046875" xlink:href="#BitstreamVeraSans-Roman-30"/>
       <use x="127.24609375" xlink:href="#BitstreamVeraSans-Roman-30"/>
      </g>
     </g>
    </g>
    <g id="ytick_3">
     <g id="line2d_19">
      <g>
       <use style="stroke:#000000;stroke-width:0.5;" x="72.0" xlink:href="#m728421d6d4" y="290.057142857"/>
      </g>
     </g>
     <g id="line2d_20">
      <g>
       <use style="stroke:#000000;stroke-width:0.5;" x="518.4" xlink:href="#mcb0005524f" y="290.057142857"/>
      </g>
     </g>
     <g id="text_8">
      <!-- 400 -->
      <defs>
       <path d="
M37.7969 64.3125
L12.8906 25.3906
L37.7969 25.3906
z

M35.2031 72.9062
L47.6094 72.9062
L47.6094 25.3906
L58.0156 25.3906
L58.0156 17.1875
L47.6094 17.1875
L47.6094 0
L37.7969 0
L37.7969 17.1875
L4.89062 17.1875
L4.89062 26.7031
z
" id="BitstreamVeraSans-Roman-34"/>
      </defs>
      <g transform="translate(46.47875 293.368392857)scale(0.12 -0.12)">
       <use xlink:href="#BitstreamVeraSans-Roman-34"/>
       <use x="63.623046875" xlink:href="#BitstreamVeraSans-Roman-30"/>
       <use x="127.24609375" xlink:href="#BitstreamVeraSans-Roman-30"/>
      </g>
     </g>
    </g>
    <g id="ytick_4">
     <g id="line2d_21">
      <g>
       <use style="stroke:#000000;stroke-width:0.5;" x="72.0" xlink:href="#m728421d6d4" y="240.685714286"/>
      </g>
     </g>
     <g id="line2d_22">
      <g>
       <use style="stroke:#000000;stroke-width:0.5;" x="518.4" xlink:href="#mcb0005524f" y="240.685714286"/>
      </g>
     </g>
     <g id="text_9">
      <!-- 600 -->
      <defs>
       <path d="
M33.0156 40.375
Q26.375 40.375 22.4844 35.8281
Q18.6094 31.2969 18.6094 23.3906
Q18.6094 15.5312 22.4844 10.9531
Q26.375 6.39062 33.0156 6.39062
Q39.6562 6.39062 43.5312 10.9531
Q47.4062 15.5312 47.4062 23.3906
Q47.4062 31.2969 43.5312 35.8281
Q39.6562 40.375 33.0156 40.375
M52.5938 71.2969
L52.5938 62.3125
Q48.875 64.0625 45.0938 64.9844
Q41.3125 65.9219 37.5938 65.9219
Q27.8281 65.9219 22.6719 59.3281
Q17.5312 52.7344 16.7969 39.4062
Q19.6719 43.6562 24.0156 45.9219
Q28.375 48.1875 33.5938 48.1875
Q44.5781 48.1875 50.9531 41.5156
Q57.3281 34.8594 57.3281 23.3906
Q57.3281 12.1562 50.6875 5.35938
Q44.0469 -1.42188 33.0156 -1.42188
Q20.3594 -1.42188 13.6719 8.26562
Q6.98438 17.9688 6.98438 36.375
Q6.98438 53.6562 15.1875 63.9375
Q23.3906 74.2188 37.2031 74.2188
Q40.9219 74.2188 44.7031 73.4844
Q48.4844 72.75 52.5938 71.2969" id="BitstreamVeraSans-Roman-36"/>
      </defs>
      <g transform="translate(46.73 243.996964286)scale(0.12 -0.12)">
       <use xlink:href="#BitstreamVeraSans-Roman-36"/>
       <use x="63.623046875" xlink:href="#BitstreamVeraSans-Roman-30"/>
       <use x="127.24609375" xlink:href="#BitstreamVeraSans-Roman-30"/>
      </g>
     </g>
    </g>
    <g id="ytick_5">
     <g id="line2d_23">
      <g>
       <use style="stroke:#000000;stroke-width:0.5;" x="72.0" xlink:href="#m728421d6d4" y="191.314285714"/>
      </g>
     </g>
     <g id="line2d_24">
      <g>
       <use style="stroke:#000000;stroke-width:0.5;" x="518.4" xlink:href="#mcb0005524f" y="191.314285714"/>
      </g>
     </g>
     <g id="text_10">
      <!-- 800 -->
      <defs>
       <path d="
M31.7812 34.625
Q24.75 34.625 20.7188 30.8594
Q16.7031 27.0938 16.7031 20.5156
Q16.7031 13.9219 20.7188 10.1562
Q24.75 6.39062 31.7812 6.39062
Q38.8125 6.39062 42.8594 10.1719
Q46.9219 13.9688 46.9219 20.5156
Q46.9219 27.0938 42.8906 30.8594
Q38.875 34.625 31.7812 34.625
M21.9219 38.8125
Q15.5781 40.375 12.0312 44.7188
Q8.5 49.0781 8.5 55.3281
Q8.5 64.0625 14.7188 69.1406
Q20.9531 74.2188 31.7812 74.2188
Q42.6719 74.2188 48.875 69.1406
Q55.0781 64.0625 55.0781 55.3281
Q55.0781 49.0781 51.5312 44.7188
Q48 40.375 41.7031 38.8125
Q48.8281 37.1562 52.7969 32.3125
Q56.7812 27.4844 56.7812 20.5156
Q56.7812 9.90625 50.3125 4.23438
Q43.8438 -1.42188 31.7812 -1.42188
Q19.7344 -1.42188 13.25 4.23438
Q6.78125 9.90625 6.78125 20.5156
Q6.78125 27.4844 10.7812 32.3125
Q14.7969 37.1562 21.9219 38.8125
M18.3125 54.3906
Q18.3125 48.7344 21.8438 45.5625
Q25.3906 42.3906 31.7812 42.3906
Q38.1406 42.3906 41.7188 45.5625
Q45.3125 48.7344 45.3125 54.3906
Q45.3125 60.0625 41.7188 63.2344
Q38.1406 66.4062 31.7812 66.4062
Q25.3906 66.4062 21.8438 63.2344
Q18.3125 60.0625 18.3125 54.3906" id="BitstreamVeraSans-Roman-38"/>
      </defs>
      <g transform="translate(46.705625 194.625535714)scale(0.12 -0.12)">
       <use xlink:href="#BitstreamVeraSans-Roman-38"/>
       <use x="63.623046875" xlink:href="#BitstreamVeraSans-Roman-30"/>
       <use x="127.24609375" xlink:href="#BitstreamVeraSans-Roman-30"/>
      </g>
     </g>
    </g>
    <g id="ytick_6">
     <g id="line2d_25">
      <g>
       <use style="stroke:#000000;stroke-width:0.5;" x="72.0" xlink:href="#m728421d6d4" y="141.942857143"/>
      </g>
     </g>
     <g id="line2d_26">
      <g>
       <use style="stroke:#000000;stroke-width:0.5;" x="518.4" xlink:href="#mcb0005524f" y="141.942857143"/>
      </g>
     </g>
     <g id="text_11">
      <!-- 1000 -->
      <g transform="translate(39.575 145.254107143)scale(0.12 -0.12)">
       <use xlink:href="#BitstreamVeraSans-Roman-31"/>
       <use x="63.623046875" xlink:href="#BitstreamVeraSans-Roman-30"/>
       <use x="127.24609375" xlink:href="#BitstreamVeraSans-Roman-30"/>
       <use x="190.869140625" xlink:href="#BitstreamVeraSans-Roman-30"/>
      </g>
     </g>
    </g>
    <g id="ytick_7">
     <g id="line2d_27">
      <g>
       <use style="stroke:#000000;stroke-width:0.5;" x="72.0" xlink:href="#m728421d6d4" y="92.5714285714"/>
      </g>
     </g>
     <g id="line2d_28">
      <g>
       <use style="stroke:#000000;stroke-width:0.5;" x="518.4" xlink:href="#mcb0005524f" y="92.5714285714"/>
      </g>
     </g>
     <g id="text_12">
      <!-- 1200 -->
      <g transform="translate(39.575 95.8826785714)scale(0.12 -0.12)">
       <use xlink:href="#BitstreamVeraSans-Roman-31"/>
       <use x="63.623046875" xlink:href="#BitstreamVeraSans-Roman-32"/>
       <use x="127.24609375" xlink:href="#BitstreamVeraSans-Roman-30"/>
       <use x="190.869140625" xlink:href="#BitstreamVeraSans-Roman-30"/>
      </g>
     </g>
    </g>
    <g id="ytick_8">
     <g id="line2d_29">
      <g>
       <use style="stroke:#000000;stroke-width:0.5;" x="72.0" xlink:href="#m728421d6d4" y="43.2"/>
      </g>
     </g>
     <g id="line2d_30">
      <g>
       <use style="stroke:#000000;stroke-width:0.5;" x="518.4" xlink:href="#mcb0005524f" y="43.2"/>
      </g>
     </g>
     <g id="text_13">
      <!-- 1400 -->
      <g transform="translate(39.575 46.51125)scale(0.12 -0.12)">
       <use xlink:href="#BitstreamVeraSans-Roman-31"/>
       <use x="63.623046875" xlink:href="#BitstreamVeraSans-Roman-34"/>
       <use x="127.24609375" xlink:href="#BitstreamVeraSans-Roman-30"/>
       <use x="190.869140625" xlink:href="#BitstreamVeraSans-Roman-30"/>
      </g>
     </g>
    </g>
   </g>
   <g id="legend_1">
    <g id="patch_7">
     <path d="
M411.608 139.266
L511.2 139.266
L511.2 50.4
L411.608 50.4
z
" style="fill:#ffffff;stroke:#000000;stroke-linejoin:miter;"/>
    </g>
    <g id="line2d_31">
     <path d="
M421.688 62.0617
L441.848 62.0617" style="fill:none;stroke:#ff0000;stroke-dasharray:3.000000,5.000000,1.000000,5.000000;stroke-dashoffset:0.0;"/>
    </g>
    <g id="line2d_32"/>
    <g id="text_14">
     <!-- DENV1 -->
     <defs>
      <path d="
M9.8125 72.9062
L55.9062 72.9062
L55.9062 64.5938
L19.6719 64.5938
L19.6719 43.0156
L54.3906 43.0156
L54.3906 34.7188
L19.6719 34.7188
L19.6719 8.29688
L56.7812 8.29688
L56.7812 0
L9.8125 0
z
" id="BitstreamVeraSans-Roman-45"/>
      <path d="
M19.6719 64.7969
L19.6719 8.10938
L31.5938 8.10938
Q46.6875 8.10938 53.6875 14.9375
Q60.6875 21.7812 60.6875 36.5312
Q60.6875 51.1719 53.6875 57.9844
Q46.6875 64.7969 31.5938 64.7969
z

M9.8125 72.9062
L30.0781 72.9062
Q51.2656 72.9062 61.1719 64.0938
Q71.0938 55.2812 71.0938 36.5312
Q71.0938 17.6719 61.125 8.82812
Q51.1719 0 30.0781 0
L9.8125 0
z
" id="BitstreamVeraSans-Roman-44"/>
      <path d="
M9.8125 72.9062
L23.0938 72.9062
L55.4219 11.9219
L55.4219 72.9062
L64.9844 72.9062
L64.9844 0
L51.7031 0
L19.3906 60.9844
L19.3906 0
L9.8125 0
z
" id="BitstreamVeraSans-Roman-4e"/>
      <path d="
M28.6094 0
L0.78125 72.9062
L11.0781 72.9062
L34.1875 11.5312
L57.3281 72.9062
L67.5781 72.9062
L39.7969 0
z
" id="BitstreamVeraSans-Roman-56"/>
     </defs>
     <g transform="translate(457.68825 67.10175)scale(0.144 -0.144)">
      <use xlink:href="#BitstreamVeraSans-Roman-44"/>
      <use x="77.001953125" xlink:href="#BitstreamVeraSans-Roman-45"/>
      <use x="140.185546875" xlink:href="#BitstreamVeraSans-Roman-4e"/>
      <use x="214.990234375" xlink:href="#BitstreamVeraSans-Roman-56"/>
      <use x="283.3984375" xlink:href="#BitstreamVeraSans-Roman-31"/>
     </g>
    </g>
    <g id="line2d_33">
     <path d="
M421.688 83.1983
L441.848 83.1983" style="fill:none;stroke:#008000;stroke-linecap:square;"/>
    </g>
    <g id="line2d_34">
     <g>
      <use style="fill:#008000;stroke:#000000;stroke-linejoin:bevel;stroke-width:0.5;" x="421.68825" xlink:href="#m78c097fb03" y="83.19825"/>
      <use style="fill:#008000;stroke:#000000;stroke-linejoin:bevel;stroke-width:0.5;" x="441.84825" xlink:href="#m78c097fb03" y="83.19825"/>
     </g>
    </g>
    <g id="text_15">
     <!-- DENV2 -->
     <g transform="translate(457.68825 88.23825)scale(0.144 -0.144)">
      <use xlink:href="#BitstreamVeraSans-Roman-44"/>
      <use x="77.001953125" xlink:href="#BitstreamVeraSans-Roman-45"/>
      <use x="140.185546875" xlink:href="#BitstreamVeraSans-Roman-4e"/>
      <use x="214.990234375" xlink:href="#BitstreamVeraSans-Roman-56"/>
      <use x="283.3984375" xlink:href="#BitstreamVeraSans-Roman-32"/>
     </g>
    </g>
    <g id="line2d_35">
     <path d="
M421.688 104.335
L441.848 104.335" style="fill:none;stroke:#0000ff;stroke-dasharray:3.000000,5.000000,1.000000,5.000000;stroke-dashoffset:0.0;"/>
    </g>
    <g id="line2d_36"/>
    <g id="text_16">
     <!-- DENV3 -->
     <defs>
      <path d="
M40.5781 39.3125
Q47.6562 37.7969 51.625 33
Q55.6094 28.2188 55.6094 21.1875
Q55.6094 10.4062 48.1875 4.48438
Q40.7656 -1.42188 27.0938 -1.42188
Q22.5156 -1.42188 17.6562 -0.515625
Q12.7969 0.390625 7.625 2.20312
L7.625 11.7188
Q11.7188 9.32812 16.5938 8.10938
Q21.4844 6.89062 26.8125 6.89062
Q36.0781 6.89062 40.9375 10.5469
Q45.7969 14.2031 45.7969 21.1875
Q45.7969 27.6406 41.2812 31.2656
Q36.7656 34.9062 28.7188 34.9062
L20.2188 34.9062
L20.2188 43.0156
L29.1094 43.0156
Q36.375 43.0156 40.2344 45.9219
Q44.0938 48.8281 44.0938 54.2969
Q44.0938 59.9062 40.1094 62.9062
Q36.1406 65.9219 28.7188 65.9219
Q24.6562 65.9219 20.0156 65.0312
Q15.375 64.1562 9.8125 62.3125
L9.8125 71.0938
Q15.4375 72.6562 20.3438 73.4375
Q25.25 74.2188 29.5938 74.2188
Q40.8281 74.2188 47.3594 69.1094
Q53.9062 64.0156 53.9062 55.3281
Q53.9062 49.2656 50.4375 45.0938
Q46.9688 40.9219 40.5781 39.3125" id="BitstreamVeraSans-Roman-33"/>
     </defs>
     <g transform="translate(457.68825 109.37475)scale(0.144 -0.144)">
      <use xlink:href="#BitstreamVeraSans-Roman-44"/>
      <use x="77.001953125" xlink:href="#BitstreamVeraSans-Roman-45"/>
      <use x="140.185546875" xlink:href="#BitstreamVeraSans-Roman-4e"/>
      <use x="214.990234375" xlink:href="#BitstreamVeraSans-Roman-56"/>
      <use x="283.3984375" xlink:href="#BitstreamVeraSans-Roman-33"/>
     </g>
    </g>
    <g id="line2d_37">
     <path d="
M421.688 125.471
L441.848 125.471" style="fill:none;stroke:#bfbf00;stroke-dasharray:3.000000,5.000000,1.000000,5.000000;stroke-dashoffset:0.0;"/>
    </g>
    <g id="line2d_38"/>
    <g id="text_17">
     <!-- DENV4 -->
     <g transform="translate(457.68825 130.51125)scale(0.144 -0.144)">
      <use xlink:href="#BitstreamVeraSans-Roman-44"/>
      <use x="77.001953125" xlink:href="#BitstreamVeraSans-Roman-45"/>
      <use x="140.185546875" xlink:href="#BitstreamVeraSans-Roman-4e"/>
      <use x="214.990234375" xlink:href="#BitstreamVeraSans-Roman-56"/>
      <use x="283.3984375" xlink:href="#BitstreamVeraSans-Roman-34"/>
     </g>
    </g>
   </g>
  </g>
 </g>
 <defs>
  <clipPath id="p7ff5b81e1d">
   <rect height="345.6" width="446.4" x="72.0" y="43.2"/>
  </clipPath>
 </defs>
</svg>
